<?xml version="1.0" encoding="utf-8"?>
<!-- Generator: Adobe Illustrator 18.0.0, SVG Export Plug-In . SVG Version: 6.00 Build 0)  -->
<!DOCTYPE svg PUBLIC "-//W3C//DTD SVG 1.1//EN" "http://www.w3.org/Graphics/SVG/1.1/DTD/svg11.dtd">
<svg version="1.1" id="Layer_1" xmlns="http://www.w3.org/2000/svg" xmlns:xlink="http://www.w3.org/1999/xlink" x="0px" y="0px"
	 viewBox="0 0 64 64" enable-background="new 0 0 64 64" xml:space="preserve">
<path d="M59,47h-2V31h2v-6h5.5L32,0.5L-0.5,25H6v6h2v16H6v6H2v11h60V53h-3V47z M19,47V31h2v-6h4v6h2v16h-2v6h-4v-6H19z M31,47V31h3
	v16H31z M36,25v2h-7v-2H36z M29,51h7v2h-7V51z M38,47V31h2v-6h4v6h2v16h-2v6h-4v-6H38z M48,51h7v2h-7V51z M53,47h-3V31h3V47z M55,27
	h-7v-2h7V27z M52.5,21H44v0h-4v0H25v0h-4v0h-9.5L32,5.5L52.5,21z M17,25v2h-7v-2H17z M12,31h3v16h-3V31z M10,51h7v2h-7V51z M58,60H6
	v-3h15h4h15h4h14V60z"/>
</svg>
