<svg xmlns="http://www.w3.org/2000/svg" xmlns:xlink="http://www.w3.org/1999/xlink" xml:space="preserve" style="shape-rendering:geometricPrecision;text-rendering:geometricPrecision;image-rendering:optimizeQuality;" viewBox="0 0 6.82666 8.533325000000001" x="0px" y="0px" fill-rule="evenodd" clip-rule="evenodd"><defs><style type="text/css">
   
    .fil1 {fill:none}
    .fil0 {fill:black;fill-rule:nonzero}
   
  </style></defs><g><g><path class="fil0" d="M2.27029 2.30949c0.0161929,-0.00076378 0.0306181,-0.00114173 0.0433071,-0.00114173 0.213374,0 0.40676,0.0728071 0.549134,0.187197 0.0761496,0.061185 0.137827,0.134406 0.180465,0.215012 -0.0355669,0.0080748 -0.0705354,0.0182323 -0.104646,0.0305906 -0.0352362,-0.0602441 -0.0837244,-0.115472 -0.142488,-0.162689 -0.124307,-0.099874 -0.294134,-0.163441 -0.482465,-0.163441 -0.00944488,0 -0.018252,0.000106299 -0.0264055,0.000322835 -0.0422205,0.0295709 -0.0886457,0.0532638 -0.138244,0.0699409 -0.0532087,0.0178976 -0.109492,0.0275472 -0.167512,0.0275472 -0.0580197,0 -0.114303,-0.00964961 -0.167512,-0.0275472 -0.0495945,-0.0166772 -0.0960157,-0.0403701 -0.138232,-0.069937 -0.0080748,-0.000212598 -0.0168031,-0.000314961 -0.0261654,-0.000314961 -0.188433,0 -0.358346,0.063563 -0.482697,0.163449 -0.121819,0.0978543 -0.19948,0.230122 -0.206457,0.370201 -0.000244094,0.00497244 -0.000374016,0.0118976 -0.000374016,0.0208307l0 0.191886 1.53744 0c-0.0139646,0.0346102 -0.0254488,0.0702402 -0.0345906,0.106669l-1.55618 0c-0.0294528,0 -0.0533346,-0.0238819 -0.0533346,-0.0533346l0 -0.24522c0,-0.00666142 0.000267717,-0.0153071 0.000791339,-0.0258307 0.00854724,-0.171689 0.101087,-0.331677 0.246039,-0.448114 0.142429,-0.114406 0.335898,-0.187205 0.549366,-0.187205 0.0135984,0 0.0292362,0.000437008 0.0469449,0.0013189l-0.0025 0.053126 0.00265748 -0.0532677c0.011685,0.000582677 0.0223031,0.00488976 0.0307677,0.0117087 0.0368583,0.0272835 0.0773268,0.0487559 0.120276,0.0632008 0.0419409,0.0141063 0.0868583,0.0217126 0.133764,0.0217126 0.0469055,0 0.0918228,-0.0076063 0.133764,-0.0217126 0.0435472,-0.0146457 0.0845472,-0.0365118 0.121819,-0.0643425l-2.3622e-005 -3.14961e-005c0.00998425,-0.00745669 0.0217323,-0.0108898 0.0332953,-0.0105827z"/><path class="fil0" d="M1.98144 1.03578c0.159437,0 0.303992,0.0515709 0.406654,0.152665 0.0945591,0.0931142 0.152453,0.226673 0.152453,0.398724 0,0.179189 -0.0633701,0.355634 -0.165327,0.485602 -0.100713,0.12839 -0.239433,0.212476 -0.39378,0.212476 -0.15435,0 -0.293075,-0.0840866 -0.393787,-0.212476 -0.101949,-0.129961 -0.165327,-0.306413 -0.165327,-0.485602 0,-0.172055 0.0578937,-0.305606 0.152457,-0.398724 0.102661,-0.101094 0.247213,-0.152665 0.406657,-0.152665zm0.332071 0.2285c-0.0819252,-0.0806732 -0.200047,-0.121831 -0.332071,-0.121831 -0.132024,0 -0.25015,0.0411575 -0.332075,0.121831 -0.0746614,0.0735157 -0.12037,0.181453 -0.12037,0.32289 0,0.155323 0.0545906,0.307823 0.142406,0.419768 0.0813583,0.103713 0.190835,0.171642 0.310039,0.171642 0.119201,0 0.228673,-0.0679291 0.310031,-0.171642 0.0878189,-0.111945 0.142406,-0.264445 0.142406,-0.419768 0,-0.141433 -0.0457087,-0.249374 -0.120366,-0.32289z"/><path class="fil0" d="M5.11381 3.13735l0.00407087 2.3622e-005 0.00147638 7.87402e-006c0.22837,0.00125197 0.435189,0.0796024 0.587736,0.202173 0.156315,0.125594 0.256118,0.298051 0.26539,0.483 0.000562992,0.0112402 0.000846457,0.0205748 0.000846457,0.0279882l0 0.266209c0,0.0294528 -0.0238819,0.0533346 -0.0533346,0.0533346l-0.141657 0 -1.9002 0c0.0243622,-0.0340866 0.0467598,-0.069752 0.0671339,-0.106669l1.72906 0 0.192331 0 0 -0.212874c0,-0.00962598 -0.000145669,-0.0172913 -0.000429134,-0.0229882 -0.00768504,-0.153339 -0.0926181,-0.298071 -0.225807,-0.405087 -0.0643937,-0.0517402 -0.139976,-0.0945472 -0.223583,-0.12526l-3.93701e-006 0.000149606c-0.0927362,-0.0341024 -0.19535,-0.0533268 -0.303555,-0.0533268 -0.0073622,0 -0.0143661,4.72441e-005 -0.0210354,0.000185039l-0.000102362 0 -0.000350394 7.87402e-006 -0.000106299 0 -0.000346457 7.87402e-006 -0.000110236 0 -0.00034252 7.87402e-006 -0.000114173 3.93701e-006 -0.000334646 7.87402e-006 -0.00011811 0 -0.000334646 7.87402e-006 -0.00011811 0 -0.000330709 7.87402e-006 -0.000122047 3.93701e-006 -0.000326772 7.87402e-006 -0.000125984 0 -0.000318898 7.87402e-006 -0.000129921 3.93701e-006 -0.000314961 7.87402e-006 -0.000133858 3.93701e-006 -0.000311024 3.93701e-006 -0.000137795 3.93701e-006 -0.000307087 7.87402e-006 -0.000137795 3.93701e-006 -0.00030315 7.87402e-006 -0.000141732 3.93701e-006 -0.00030315 7.87402e-006 -0.000141732 3.93701e-006 -0.000295276 3.93701e-006 -0.000149606 7.87402e-006 -0.000291339 3.93701e-006 -0.000149606 7.87402e-006 -0.000287402 3.93701e-006 -0.000153543 7.87402e-006 -0.000283465 3.93701e-006 -0.00015748 7.87402e-006 -0.000279528 3.93701e-006 -0.000161417 7.87402e-006 -0.000275591 3.93701e-006 -0.000161417 7.87402e-006c-0.0457874,0.0322283 -0.0961732,0.0580236 -0.150012,0.0761299 -0.0546811,0.0183937 -0.112398,0.028689 -0.171898,0.0295866l-0.00265748 3.54331e-005 -0.00026378 0 -0.00266142 2.3622e-005 -0.00026378 0 -0.00266535 7.87402e-006 -0.00026378 0 -0.00266535 -7.87402e-006 -0.00026378 0 -0.00266142 -2.3622e-005 -0.00026378 0 -0.00265748 -3.54331e-005c-0.0595,-0.000893701 -0.11722,-0.0111929 -0.171898,-0.0295866 -0.0538386,-0.0181063 -0.104224,-0.0439016 -0.150012,-0.0761299l-0.000161417 -7.87402e-006 -0.000275591 -3.93701e-006 -0.000161417 -7.87402e-006 -0.000279528 -3.93701e-006 -0.00015748 -7.87402e-006 -0.000283465 -3.93701e-006 -0.000153543 -7.87402e-006 -0.000287402 -3.93701e-006 -0.000149606 -7.87402e-006 -0.000291339 -3.93701e-006 -0.000149606 -7.87402e-006 -0.000295276 -3.93701e-006 -0.000141732 -3.93701e-006 -0.00030315 -7.87402e-006 -0.000141732 -3.93701e-006 -0.00030315 -7.87402e-006 -0.000137795 -3.93701e-006 -0.000307087 -7.87402e-006 -0.000137795 -3.93701e-006 -0.000311024 -3.93701e-006 -0.000133858 -3.93701e-006 -0.000314961 -7.87402e-006 -0.000129921 -3.93701e-006 -0.000318898 -7.87402e-006 -0.000125984 0 -0.000326772 -7.87402e-006 -0.000122047 -3.93701e-006 -0.000330709 -7.87402e-006 -0.00011811 0 -0.000334646 -7.87402e-006 -0.00011811 0 -0.000334646 -7.87402e-006 -0.000114173 -3.93701e-006 -0.00034252 -7.87402e-006 -0.000110236 0 -0.000346457 -7.87402e-006 -0.000106299 0 -0.000350394 -7.87402e-006 -0.000102362 0c-0.00667323,-0.000122047 -0.013689,-0.000185039 -0.0210354,-0.000185039 -0.108205,0 -0.210819,0.0192244 -0.303555,0.0533268l-3.93701e-006 -0.000149606c-0.00633858,0.00233071 -0.0126299,0.00472835 -0.018878,0.00719291 -0.00724409,-0.0351457 -0.016563,-0.0696417 -0.0280866,-0.103287 0.105209,-0.0401102 0.221713,-0.0630591 0.344449,-0.0637323l0.00147638 -7.87402e-006 0.00407087 -2.3622e-005c0.00342913,0 0.00694094,3.14961e-005 0.0105748,7.87402e-005l0.000192913 0 0.0012874 1.9685e-005 0.000106299 0 0.000641732 1.1811e-005 5.90551e-005 0 0.000688976 1.1811e-005 1.1811e-005 0 0.000704724 1.1811e-005 3.54331e-005 3.93701e-006 0.000673228 7.87402e-006 8.26772e-005 3.93701e-006 0.000629921 1.1811e-005 0.000129921 3.93701e-006 0.000582677 7.87402e-006 0.000177165 3.93701e-006 0.00053937 1.1811e-005 0.000224409 3.93701e-006 0.000492126 1.1811e-005 0.000275591 3.93701e-006 0.000444882 1.1811e-005 0.000326772 7.87402e-006 0.000397638 7.87402e-006 0.000374016 7.87402e-006 0.000354331 1.1811e-005 0.00042126 7.87402e-006 0.000307087 7.87402e-006 0.00203937 5.11811e-005 0.000161417 7.87402e-006 0.00221654 5.51181e-005 1.1811e-005 3.93701e-006c0.00701969,0.000200787 0.0143976,0.000480315 0.0221299,0.00084252 0.00138189,-3.14961e-005 0.00276378,-1.5748e-005 0.00414961,5.90551e-005l0 -7.87402e-006c0.0117047,0.000582677 0.0223386,0.00490551 0.030811,0.0117441 0.0404055,0.0299252 0.0848031,0.0534803 0.131949,0.0693346 0.0438465,0.014752 0.0906535,0.0230197 0.139441,0.0237638l0.0021378 3.14961e-005 0.00026378 0 0.0021378 1.5748e-005 0.00026378 0 0.00214567 7.87402e-006 0.00026378 0 0.00214567 -7.87402e-006 0.00026378 0 0.0021378 -1.5748e-005 0.00026378 0 0.0021378 -3.14961e-005c0.0487913,-0.000740157 0.0955906,-0.00901575 0.139441,-0.0237638 0.0471457,-0.0158543 0.0915433,-0.0394094 0.131949,-0.0693346 0.00847244,-0.00683858 0.0191063,-0.0111614 0.030811,-0.0117441l0 7.87402e-006c0.00138583,-7.48031e-005 0.00276772,-9.05512e-005 0.00414961,-5.90551e-005 0.0157244,-0.000728346 0.0315433,-0.00123228 0.0472953,-0.00123228z"/><path class="fil0" d="M4.75322 1.75585c0.171909,0 0.327713,0.0555433 0.438268,0.164413 0.101807,0.100248 0.164134,0.244142 0.164134,0.42961 0,0.193512 -0.0684213,0.384031 -0.178496,0.524354 -0.108508,0.138323 -0.257846,0.228917 -0.423906,0.228917 -0.166059,0 -0.315398,-0.0905945 -0.423906,-0.228917 -0.110075,-0.140323 -0.178496,-0.330843 -0.178496,-0.524354 0,-0.185469 0.0623268,-0.329362 0.164134,-0.42961 0.110559,-0.108874 0.266358,-0.164413 0.438268,-0.164413zm0.363685 0.240248c-0.0898228,-0.0884528 -0.219193,-0.133579 -0.363685,-0.133579 -0.144492,0 -0.273862,0.045126 -0.363685,0.133579 -0.0819016,0.0806496 -0.132047,0.198925 -0.132047,0.353776 0,0.169642 0.0596378,0.33622 0.155575,0.45852 0.0891535,0.113646 0.209248,0.188083 0.340157,0.188083 0.130909,0 0.251004,-0.074437 0.340157,-0.188083 0.095937,-0.122299 0.155575,-0.288878 0.155575,-0.45852 0,-0.15485 -0.0501457,-0.273126 -0.132047,-0.353776z"/><g><path class="fil0" d="M3.65845 4.51488c0.0218504,-0.00104331 0.0418346,-0.00155906 0.0599764,-0.00155906 0.288217,0 0.549272,0.0982126 0.741319,0.25252 0.194583,0.156343 0.318803,0.370736 0.330319,0.600394 0.000673228,0.0134764 0.00101575,0.0250787 0.00101575,0.0347283l0 0.336591c0,0.0294528 -0.0238819,0.0533346 -0.0533346,0.0533346l-2.95048 0c-0.0294528,0 -0.0533346,-0.0238819 -0.0533346,-0.0533346l0 -0.336591c0,-0.00958268 0.000338583,-0.0211142 0.00100787,-0.0345315 0.0114409,-0.229776 0.135689,-0.444205 0.330343,-0.600563 0.192126,-0.154331 0.453291,-0.252531 0.74163,-0.252531 0.0190787,0 0.040248,0.000574803 0.0635157,0.00173228l-0.0025 0.053126 0.00265354 -0.0532677c0.0117126,0.000582677 0.0223543,0.00490945 0.0308307,0.0117559 0.0523189,0.038815 0.109921,0.0693937 0.171197,0.0900039 0.0596654,0.0200669 0.123441,0.0308858 0.189894,0.0308858 0.0664567,0 0.130228,-0.0108189 0.18989,-0.0308858 0.0619055,-0.0208189 0.120059,-0.051811 0.172807,-0.0911969l-2.3622e-005 -3.14961e-005c0.00998425,-0.00745276 0.0217165,-0.0108858 0.0332756,-0.0105787zm0.0599764 0.10511c-0.0151811,0 -0.0294764,0.000220472 -0.0428504,0.000669291 -0.057752,0.0411457 -0.121398,0.0739803 -0.189437,0.0968622 -0.070937,0.0238583 -0.146067,0.0367205 -0.223638,0.0367205 -0.077563,0 -0.152701,-0.0128622 -0.223642,-0.0367205 -0.0680354,-0.0228858 -0.131677,-0.0557165 -0.189425,-0.0968583 -0.0132638,-0.000440945 -0.0274449,-0.00065748 -0.0425236,-0.00065748 -0.263303,0 -0.500913,0.0889646 -0.674961,0.228776 -0.17152,0.137776 -0.28089,0.324488 -0.29076,0.52265 -0.000389764,0.0078622 -0.000590551,0.0177087 -0.000590551,0.0295315l0 0.283256 2.84381 0 0 -0.283256c0,-0.0118898 -0.000204724,-0.0217874 -0.000598425,-0.0297283 -0.00992913,-0.198047 -0.11928,-0.384717 -0.290736,-0.52248 -0.17398,-0.139787 -0.411476,-0.228764 -0.67465,-0.228764z"/><path class="fil0" d="M3.26251 2.76658c0.213736,0 0.407228,0.0688465 0.544276,0.203803 0.126087,0.124161 0.203283,0.302709 0.203283,0.533165 0,0.241508 -0.0853465,0.479236 -0.222657,0.654276 -0.134634,0.17163 -0.319594,0.284035 -0.524902,0.284035 -0.205311,0 -0.390272,-0.112406 -0.524906,-0.284035 -0.137311,-0.175035 -0.222661,-0.412764 -0.222661,-0.654276 0,-0.230457 0.0771969,-0.409004 0.203283,-0.533165 0.137047,-0.134953 0.330547,-0.203803 0.544283,-0.203803zm0.469693 0.279638c-0.116311,-0.114535 -0.28337,-0.172969 -0.469693,-0.172969 -0.186323,0 -0.353386,0.0584331 -0.469701,0.172969 -0.106185,0.104563 -0.171197,0.257492 -0.171197,0.457331 0,0.217642 0.076563,0.431421 0.19974,0.588441 0.11528,0.146957 0.270992,0.243201 0.441157,0.243201 0.170161,0 0.325874,-0.0962441 0.441154,-0.243201 0.123173,-0.157016 0.199736,-0.370799 0.199736,-0.588441 0,-0.199839 -0.0650118,-0.352768 -0.171197,-0.457331z"/></g></g></g><rect class="fil1" width="6.82666" height="6.82666"/><text x="0" y="21.82666" fill="#000000" font-size="5px" font-weight="bold" font-family="'Helvetica Neue', Helvetica, Arial-Unicode, Arial, Sans-serif">Created by Graphic Nehar</text><text x="0" y="26.82666" fill="#000000" font-size="5px" font-weight="bold" font-family="'Helvetica Neue', Helvetica, Arial-Unicode, Arial, Sans-serif">from the Noun Project</text></svg>